# xmcd
#
# Track frame offsets: 
#        150
#        11168
#        22556
#        39424
#        56722
#
# Disc length: 924 seconds
#
# Revision: 0
# Processed by: cddbd v1.5.2PL0 Copyright (c) Steve Scherf et al.
# Submitted via: ExactAudioCopyFreeDBPlugin 1.0
#
DISCID=30039a05
DTITLE=Tayla Lynn - The Ranch  (featuring duet with Loretta Lynn)
DYEAR=1900
DGENRE=
TTITLE0=Honky Tonk Girl
TTITLE1=These Wheels
TTITLE2=Coal Dust
TTITLE3=Muddy River
TTITLE4=Bonus Track: Tayla and Loretta
EXTD=
EXTT0=
EXTT1=
EXTT2=
EXTT3=
EXTT4=
PLAYORDER=
